<svg id="visual" viewBox="0 0 2000 900" width="2000" height="900" xmlns="http://www.w3.org/2000/svg" xmlns:xlink="http://www.w3.org/1999/xlink" version="1.1"><rect x="0" y="0" width="2000" height="900" fill="#fff"></rect><defs><linearGradient id="grad1_0" x1="55%" y1="100%" x2="100%" y2="0%"><stop offset="5.555555555555554%" stop-color="#ffffff" stop-opacity="1"></stop><stop offset="94.44444444444446%" stop-color="#ffffff" stop-opacity="1"></stop></linearGradient></defs><defs><linearGradient id="grad2_0" x1="0%" y1="100%" x2="45%" y2="0%"><stop offset="5.555555555555554%" stop-color="#ffffff" stop-opacity="1"></stop><stop offset="94.44444444444446%" stop-color="#ffffff" stop-opacity="1"></stop></linearGradient></defs><g transform="translate(2000, 900)"><path d="M-360 0C-359 -51.1 -358 -102.2 -332.6 -137.8C-307.2 -173.3 -257.4 -193.4 -221.3 -221.3C-185.2 -249.3 -162.8 -285.1 -128.2 -309.5C-93.6 -333.9 -46.8 -347 0 -360L0 0Z" fill="#38d39f"></path></g><g transform="translate(0, 0)"><path d="M360 0C354.5 46.4 349 92.8 332.6 137.8C316.2 182.8 288.9 226.3 251.7 251.7C214.6 277.1 167.6 284.3 124 299.3C80.4 314.4 40.2 337.2 0 360L0 0Z" fill="#38d39f"></path></g></svg>