<?xml version="1.0" standalone="no"?>
<svg viewBox="0 0 200 200" xmlns="http://www.w3.org/2000/svg">
  <path fill="#32BE8F" d="M24.6,-43.9C35.8,-36.2,51.6,-37.5,59,-31.7C66.4,-25.9,65.4,-13,61.7,-2.1C58,8.7,51.5,17.3,46.3,26.9C41.1,36.6,37.2,47.2,29.7,50.9C22.2,54.6,11.1,51.4,-2.6,55.8C-16.2,60.3,-32.5,72.3,-32.8,64.5C-33.2,56.7,-17.6,28.9,-19.8,14.8C-22,0.8,-41.9,0.4,-49.7,-4.5C-57.5,-9.4,-53,-18.7,-50.8,-32.7C-48.6,-46.7,-48.6,-65.4,-40.5,-74.9C-32.4,-84.5,-16.2,-84.8,-4.7,-76.6C6.7,-68.4,13.4,-51.6,24.6,-43.9Z" transform="translate(100 100)" />
</svg>
