<svg id="visual" viewBox="0 0 2000 900" width="2000" height="900" xmlns="http://www.w3.org/2000/svg" xmlns:xlink="http://www.w3.org/1999/xlink" version="1.1"><rect x="0" y="0" width="2000" height="900" fill="#fff"></rect><path d="M0 812L37 800.7C74 789.3 148 766.7 222 742.3C296 718 370 692 444.2 686.8C518.3 681.7 592.7 697.3 666.8 714.7C741 732 815 751 889 760C963 769 1037 768 1111 760C1185 752 1259 737 1333.2 720.7C1407.3 704.3 1481.7 686.7 1555.8 678.8C1630 671 1704 673 1778 676.2C1852 679.3 1926 683.7 1963 685.8L2000 688L2000 901L1963 901C1926 901 1852 901 1778 901C1704 901 1630 901 1555.8 901C1481.7 901 1407.3 901 1333.2 901C1259 901 1185 901 1111 901C1037 901 963 901 889 901C815 901 741 901 666.8 901C592.7 901 518.3 901 444.2 901C370 901 296 901 222 901C148 901 74 901 37 901L0 901Z" fill="#00e77f"></path><path d="M0 818L37 815.2C74 812.3 148 806.7 222 804.8C296 803 370 805 444.2 800.5C518.3 796 592.7 785 666.8 771C741 757 815 740 889 724.7C963 709.3 1037 695.7 1111 711.5C1185 727.3 1259 772.7 1333.2 786.3C1407.3 800 1481.7 782 1555.8 775.3C1630 768.7 1704 773.3 1778 767.3C1852 761.3 1926 744.7 1963 736.3L2000 728L2000 901L1963 901C1926 901 1852 901 1778 901C1704 901 1630 901 1555.8 901C1481.7 901 1407.3 901 1333.2 901C1259 901 1185 901 1111 901C1037 901 963 901 889 901C815 901 741 901 666.8 901C592.7 901 518.3 901 444.2 901C370 901 296 901 222 901C148 901 74 901 37 901L0 901Z" fill="#00e08c"></path><path d="M0 724L37 733.3C74 742.7 148 761.3 222 776.8C296 792.3 370 804.7 444.2 807.5C518.3 810.3 592.7 803.7 666.8 798.2C741 792.7 815 788.3 889 776.7C963 765 1037 746 1111 753.8C1185 761.7 1259 796.3 1333.2 806.5C1407.3 816.7 1481.7 802.3 1555.8 789.8C1630 777.3 1704 766.7 1778 768.5C1852 770.3 1926 784.7 1963 791.8L2000 799L2000 901L1963 901C1926 901 1852 901 1778 901C1704 901 1630 901 1555.8 901C1481.7 901 1407.3 901 1333.2 901C1259 901 1185 901 1111 901C1037 901 963 901 889 901C815 901 741 901 666.8 901C592.7 901 518.3 901 444.2 901C370 901 296 901 222 901C148 901 74 901 37 901L0 901Z" fill="#00d997"></path><path d="M0 798L37 789.2C74 780.3 148 762.7 222 753C296 743.3 370 741.7 444.2 755C518.3 768.3 592.7 796.7 666.8 806.8C741 817 815 809 889 804.5C963 800 1037 799 1111 793.7C1185 788.3 1259 778.7 1333.2 781C1407.3 783.3 1481.7 797.7 1555.8 799C1630 800.3 1704 788.7 1778 781.3C1852 774 1926 771 1963 769.5L2000 768L2000 901L1963 901C1926 901 1852 901 1778 901C1704 901 1630 901 1555.8 901C1481.7 901 1407.3 901 1333.2 901C1259 901 1185 901 1111 901C1037 901 963 901 889 901C815 901 741 901 666.8 901C592.7 901 518.3 901 444.2 901C370 901 296 901 222 901C148 901 74 901 37 901L0 901Z" fill="#00d2a0"></path><path d="M0 758L37 760.2C74 762.3 148 766.7 222 780.3C296 794 370 817 444.2 819.5C518.3 822 592.7 804 666.8 789.2C741 774.3 815 762.7 889 762.3C963 762 1037 773 1111 779.8C1185 786.7 1259 789.3 1333.2 791C1407.3 792.7 1481.7 793.3 1555.8 803.2C1630 813 1704 832 1778 832.2C1852 832.3 1926 813.7 1963 804.3L2000 795L2000 901L1963 901C1926 901 1852 901 1778 901C1704 901 1630 901 1555.8 901C1481.7 901 1407.3 901 1333.2 901C1259 901 1185 901 1111 901C1037 901 963 901 889 901C815 901 741 901 666.8 901C592.7 901 518.3 901 444.2 901C370 901 296 901 222 901C148 901 74 901 37 901L0 901Z" fill="#00caa6"></path><path d="M0 804L37 806.3C74 808.7 148 813.3 222 819C296 824.7 370 831.3 444.2 837C518.3 842.7 592.7 847.3 666.8 848.5C741 849.7 815 847.3 889 845.5C963 843.7 1037 842.3 1111 839C1185 835.7 1259 830.3 1333.2 823C1407.3 815.7 1481.7 806.3 1555.8 799.7C1630 793 1704 789 1778 797.5C1852 806 1926 827 1963 837.5L2000 848L2000 901L1963 901C1926 901 1852 901 1778 901C1704 901 1630 901 1555.8 901C1481.7 901 1407.3 901 1333.2 901C1259 901 1185 901 1111 901C1037 901 963 901 889 901C815 901 741 901 666.8 901C592.7 901 518.3 901 444.2 901C370 901 296 901 222 901C148 901 74 901 37 901L0 901Z" fill="#00c2aa"></path><path d="M0 844L37 845.2C74 846.3 148 848.7 222 847C296 845.3 370 839.7 444.2 838.3C518.3 837 592.7 840 666.8 845.5C741 851 815 859 889 862.5C963 866 1037 865 1111 854.2C1185 843.3 1259 822.7 1333.2 823.5C1407.3 824.3 1481.7 846.7 1555.8 857C1630 867.3 1704 865.7 1778 855.2C1852 844.7 1926 825.3 1963 815.7L2000 806L2000 901L1963 901C1926 901 1852 901 1778 901C1704 901 1630 901 1555.8 901C1481.7 901 1407.3 901 1333.2 901C1259 901 1185 901 1111 901C1037 901 963 901 889 901C815 901 741 901 666.8 901C592.7 901 518.3 901 444.2 901C370 901 296 901 222 901C148 901 74 901 37 901L0 901Z" fill="#00baac"></path><path d="M0 830L37 829.8C74 829.7 148 829.3 222 830.2C296 831 370 833 444.2 838.8C518.3 844.7 592.7 854.3 666.8 855.7C741 857 815 850 889 852.5C963 855 1037 867 1111 869.3C1185 871.7 1259 864.3 1333.2 861.3C1407.3 858.3 1481.7 859.7 1555.8 859.3C1630 859 1704 857 1778 860.7C1852 864.3 1926 873.7 1963 878.3L2000 883L2000 901L1963 901C1926 901 1852 901 1778 901C1704 901 1630 901 1555.8 901C1481.7 901 1407.3 901 1333.2 901C1259 901 1185 901 1111 901C1037 901 963 901 889 901C815 901 741 901 666.8 901C592.7 901 518.3 901 444.2 901C370 901 296 901 222 901C148 901 74 901 37 901L0 901Z" fill="#00b1ad"></path><path d="M0 862L37 866.5C74 871 148 880 222 882.8C296 885.7 370 882.3 444.2 880.2C518.3 878 592.7 877 666.8 873.7C741 870.3 815 864.7 889 863.3C963 862 1037 865 1111 864.8C1185 864.7 1259 861.3 1333.2 860.3C1407.3 859.3 1481.7 860.7 1555.8 864.8C1630 869 1704 876 1778 876.7C1852 877.3 1926 871.7 1963 868.8L2000 866L2000 901L1963 901C1926 901 1852 901 1778 901C1704 901 1630 901 1555.8 901C1481.7 901 1407.3 901 1333.2 901C1259 901 1185 901 1111 901C1037 901 963 901 889 901C815 901 741 901 666.8 901C592.7 901 518.3 901 444.2 901C370 901 296 901 222 901C148 901 74 901 37 901L0 901Z" fill="#01a9ac"></path></svg>