<svg id="visual" viewBox="0 0 2000 900" width="2000" height="900" xmlns="http://www.w3.org/2000/svg" xmlns:xlink="http://www.w3.org/1999/xlink" version="1.1"><rect x="0" y="0" width="2000" height="900" fill="#fff"></rect><path d="M1902 900L1851.5 870C1801 840 1700 780 1599.7 720C1499.3 660 1399.7 600 1434.3 540C1469 480 1638 420 1732.5 360C1827 300 1847 240 1787 180C1727 120 1587 60 1517 30L1447 0L2000 0L2000 30C2000 60 2000 120 2000 180C2000 240 2000 300 2000 360C2000 420 2000 480 2000 540C2000 600 2000 660 2000 720C2000 780 2000 840 2000 870L2000 900Z" fill="#38d39f" stroke-linecap="round" stroke-linejoin="miter"></path></svg>