<svg id="visual" viewBox="0 0 900 600" width="900" height="600" xmlns="http://www.w3.org/2000/svg" xmlns:xlink="http://www.w3.org/1999/xlink" version="1.1"><rect x="0" y="0" width="900" height="600" fill="#cfc"></rect><path d="M0 135L21.5 125.2C43 115.3 86 95.7 128.8 90.2C171.7 84.7 214.3 93.3 257.2 112.7C300 132 343 162 385.8 172.5C428.7 183 471.3 174 514.2 155.7C557 137.3 600 109.7 642.8 111.3C685.7 113 728.3 144 771.2 150.5C814 157 857 139 878.5 130L900 121L900 0L878.5 0C857 0 814 0 771.2 0C728.3 0 685.7 0 642.8 0C600 0 557 0 514.2 0C471.3 0 428.7 0 385.8 0C343 0 300 0 257.2 0C214.3 0 171.7 0 128.8 0C86 0 43 0 21.5 0L0 0Z" fill="#38d39f" stroke-linecap="round" stroke-linejoin="miter"></path></svg>