<svg id="visual" viewBox="0 0 1300 600" width="1300" height="600" xmlns="http://www.w3.org/2000/svg" xmlns:xlink="http://www.w3.org/1999/xlink" version="1.1"><rect x="0" y="0" width="1300" height="600" fill="#fff"></rect><path d="M0 165L31 171.5C62 178 124 191 185.8 181.8C247.7 172.7 309.3 141.3 371.2 121.8C433 102.3 495 94.7 557 104.3C619 114 681 141 743 141.5C805 142 867 116 928.8 104.3C990.7 92.7 1052.3 95.3 1114.2 111.3C1176 127.3 1238 156.7 1269 171.3L1300 186L1300 0L1269 0C1238 0 1176 0 1114.2 0C1052.3 0 990.7 0 928.8 0C867 0 805 0 743 0C681 0 619 0 557 0C495 0 433 0 371.2 0C309.3 0 247.7 0 185.8 0C124 0 62 0 31 0L0 0Z" fill="#32be8f" stroke-linecap="round" stroke-linejoin="miter"></path></svg>