<svg id="visual" viewBox="0 0 900 600" width="900" height="600" xmlns="http://www.w3.org/2000/svg" xmlns:xlink="http://www.w3.org/1999/xlink" version="1.1"><rect x="0" y="0" width="900" height="600" fill="#fff"></rect><path d="M632 600L659.7 580C687.3 560 742.7 520 767.3 480C792 440 786 400 766.2 360C746.3 320 712.7 280 725.2 240C737.7 200 796.3 160 805.2 120C814 80 773 40 752.5 20L732 0L900 0L900 20C900 40 900 80 900 120C900 160 900 200 900 240C900 280 900 320 900 360C900 400 900 440 900 480C900 520 900 560 900 580L900 600Z" fill="#38d39f" stroke-linecap="round" stroke-linejoin="miter"></path></svg>