<svg id="visual" viewBox="0 0 900 600" width="900" height="600" xmlns="http://www.w3.org/2000/svg" xmlns:xlink="http://www.w3.org/1999/xlink" version="1.1"><rect x="0" y="0" width="900" height="600" fill="#fff"></rect><path d="M0 524L21.5 504.3C43 484.7 86 445.3 128.8 435.2C171.7 425 214.3 444 257.2 454.3C300 464.7 343 466.3 385.8 455.3C428.7 444.3 471.3 420.7 514.2 422C557 423.3 600 449.7 642.8 467C685.7 484.3 728.3 492.7 771.2 486.8C814 481 857 461 878.5 451L900 441L900 601L878.5 601C857 601 814 601 771.2 601C728.3 601 685.7 601 642.8 601C600 601 557 601 514.2 601C471.3 601 428.7 601 385.8 601C343 601 300 601 257.2 601C214.3 601 171.7 601 128.8 601C86 601 43 601 21.5 601L0 601Z" fill="#38d39f" stroke-linecap="round" stroke-linejoin="miter"></path></svg>