<svg id="visual" viewBox="0 0 1400 600" width="1400" height="600" xmlns="http://www.w3.org/2000/svg" xmlns:xlink="http://www.w3.org/1999/xlink" version="1.1"><rect x="0" y="0" width="1400" height="600" fill="#fff"></rect><path d="M0 117L46.7 138.2C93.3 159.3 186.7 201.7 280 214.2C373.3 226.7 466.7 209.3 560 185.8C653.3 162.3 746.7 132.7 840 141.3C933.3 150 1026.7 197 1120 195.7C1213.3 194.3 1306.7 144.7 1353.3 119.8L1400 95L1400 0L1353.3 0C1306.7 0 1213.3 0 1120 0C1026.7 0 933.3 0 840 0C746.7 0 653.3 0 560 0C466.7 0 373.3 0 280 0C186.7 0 93.3 0 46.7 0L0 0Z" fill="#32be8f" stroke-linecap="round" stroke-linejoin="miter"></path></svg>