<?xml version="1.0" standalone="no"?><svg xmlns="http://www.w3.org/2000/svg" viewBox="0 0 1440 320"><path fill="#00cba9" fill-opacity="1" d="M0,64L30,64C60,64,120,64,180,53.3C240,43,300,21,360,42.7C420,64,480,128,540,170.7C600,213,660,235,720,202.7C780,171,840,85,900,85.3C960,85,1020,171,1080,208C1140,245,1200,235,1260,229.3C1320,224,1380,224,1410,224L1440,224L1440,0L1410,0C1380,0,1320,0,1260,0C1200,0,1140,0,1080,0C1020,0,960,0,900,0C840,0,780,0,720,0C660,0,600,0,540,0C480,0,420,0,360,0C300,0,240,0,180,0C120,0,60,0,30,0L0,0Z"></path></svg>