<svg id="visual" viewBox="0 0 1400 600" width="1400" height="600" xmlns="http://www.w3.org/2000/svg" xmlns:xlink="http://www.w3.org/1999/xlink" version="1.1"><rect x="0" y="0" width="1400" height="600" fill="#cfc"></rect><path d="M0 135L33.3 125.2C66.7 115.3 133.3 95.7 200 90.2C266.7 84.7 333.3 93.3 400 112.7C466.7 132 533.3 162 600 172.5C666.7 183 733.3 174 800 155.7C866.7 137.3 933.3 109.7 1000 111.3C1066.7 113 1133.3 144 1200 150.5C1266.7 157 1333.3 139 1366.7 130L1400 121L1400 0L1366.7 0C1333.3 0 1266.7 0 1200 0C1133.3 0 1066.7 0 1000 0C933.3 0 866.7 0 800 0C733.3 0 666.7 0 600 0C533.3 0 466.7 0 400 0C333.3 0 266.7 0 200 0C133.3 0 66.7 0 33.3 0L0 0Z" fill="#38d39f" stroke-linecap="round" stroke-linejoin="miter"></path></svg>