<svg id="visual" viewBox="0 0 960 540" width="960" height="540" xmlns="http://www.w3.org/2000/svg" xmlns:xlink="http://www.w3.org/1999/xlink" version="1.1"><rect x="0" y="0" width="960" height="540" fill="#fff"></rect><defs><linearGradient id="grad1_0" x1="43.8%" y1="0%" x2="100%" y2="100%"><stop offset="14.444444444444446%" stop-color="#ffffff" stop-opacity="1"></stop><stop offset="85.55555555555554%" stop-color="#ffffff" stop-opacity="1"></stop></linearGradient></defs><defs><linearGradient id="grad2_0" x1="0%" y1="0%" x2="56.3%" y2="100%"><stop offset="14.444444444444446%" stop-color="#ffffff" stop-opacity="1"></stop><stop offset="85.55555555555554%" stop-color="#ffffff" stop-opacity="1"></stop></linearGradient></defs><g transform="translate(960, 0)"><path d="M0 486C-66.8 483.6 -133.6 481.2 -186 449C-238.4 416.8 -276.5 354.9 -300.5 300.5C-324.5 246.1 -334.5 199.2 -363.1 150.4C-391.7 101.6 -438.8 50.8 -486 0L0 0Z" fill="#38d39f"></path></g><g transform="translate(0, 540)"><path d="M0 -486C56.4 -463 112.9 -440 174.1 -420.4C235.4 -400.8 301.4 -384.6 343.7 -343.7C385.9 -302.7 404.3 -237.1 424.1 -175.7C443.8 -114.3 464.9 -57.1 486 0L0 0Z" fill="#38d39f"></path></g></svg>