<svg id="visual" viewBox="0 0 2000 900" width="2000" height="900" xmlns="http://www.w3.org/2000/svg" xmlns:xlink="http://www.w3.org/1999/xlink" version="1.1"><rect x="0" y="0" width="2000" height="900" fill="#f3f3f3"></rect><defs><linearGradient id="grad1_0" x1="55%" y1="100%" x2="100%" y2="0%"><stop offset="5.555555555555554%" stop-color="#f3f3f3" stop-opacity="1"></stop><stop offset="94.44444444444446%" stop-color="#f3f3f3" stop-opacity="1"></stop></linearGradient></defs><defs><linearGradient id="grad2_0" x1="0%" y1="100%" x2="45%" y2="0%"><stop offset="5.555555555555554%" stop-color="#f3f3f3" stop-opacity="1"></stop><stop offset="94.44444444444446%" stop-color="#f3f3f3" stop-opacity="1"></stop></linearGradient></defs><g transform="translate(2000, 900)"><path d="M-360 0C-323.3 -34 -286.6 -68 -274.4 -113.7C-262.2 -159.3 -274.5 -216.7 -254.6 -254.6C-234.6 -292.4 -182.5 -310.9 -134.7 -325.2C-86.9 -339.5 -43.5 -349.8 0 -360L0 0Z" fill="#01a9ac"></path></g><g transform="translate(0, 0)"><path d="M360 0C323 32.4 286.1 64.8 275.3 114C264.5 163.3 280 229.5 254.6 254.6C229.1 279.6 162.9 263.7 113.7 274.4C64.4 285.1 32.2 322.6 0 360L0 0Z" fill="#01a9ac"></path></g></svg>