<svg id="visual" viewBox="0 0 960 540" width="960" height="540" xmlns="http://www.w3.org/2000/svg" xmlns:xlink="http://www.w3.org/1999/xlink" version="1.1"><rect x="0" y="0" width="960" height="540" fill="#fff"></rect><defs><linearGradient id="grad1_0" x1="43.8%" y1="100%" x2="100%" y2="0%"><stop offset="14.444444444444446%" stop-color="#ffffff" stop-opacity="1"></stop><stop offset="85.55555555555554%" stop-color="#ffffff" stop-opacity="1"></stop></linearGradient></defs><defs><linearGradient id="grad2_0" x1="0%" y1="100%" x2="56.3%" y2="0%"><stop offset="14.444444444444446%" stop-color="#ffffff" stop-opacity="1"></stop><stop offset="85.55555555555554%" stop-color="#ffffff" stop-opacity="1"></stop></linearGradient></defs><g transform="translate(960, 540)"><path d="M-216 0C-196 -22.2 -175.9 -44.5 -165.4 -68.5C-154.8 -92.5 -153.8 -118.4 -142.1 -142.1C-130.4 -165.9 -108.1 -187.6 -82.7 -199.6C-57.2 -211.5 -28.6 -213.8 0 -216L0 0Z" fill="#38d39f"></path></g><g transform="translate(0, 0)"><path d="M216 0C213.7 29.1 211.4 58.2 199.6 82.7C187.8 107.1 166.5 126.8 145.7 145.7C124.9 164.5 104.6 182.4 80.4 194C56.2 205.6 28.1 210.8 0 216L0 0Z" fill="#38d39f"></path></g></svg>