<svg id="visual" viewBox="0 0 960 540" width="960" height="540" xmlns="http://www.w3.org/2000/svg" xmlns:xlink="http://www.w3.org/1999/xlink" version="1.1"><rect x="0" y="0" width="960" height="540" fill="#fff"></rect><defs><linearGradient id="grad1_0" x1="43.8%" y1="100%" x2="100%" y2="0%"><stop offset="14.444444444444446%" stop-color="#ffffff" stop-opacity="1"></stop><stop offset="85.55555555555554%" stop-color="#ffffff" stop-opacity="1"></stop></linearGradient></defs><defs><linearGradient id="grad2_0" x1="0%" y1="100%" x2="56.3%" y2="0%"><stop offset="14.444444444444446%" stop-color="#ffffff" stop-opacity="1"></stop><stop offset="85.55555555555554%" stop-color="#ffffff" stop-opacity="1"></stop></linearGradient></defs><g transform="translate(960, 540)"><path d="M-486 0C-483.6 -66.8 -481.2 -133.6 -449 -186C-416.8 -238.4 -354.9 -276.5 -300.5 -300.5C-246.1 -324.5 -199.2 -334.5 -150.4 -363.1C-101.6 -391.7 -50.8 -438.8 0 -486L0 0Z" fill="#38d39f"></path></g><g transform="translate(0, 0)"><path d="M486 0C463 56.4 440 112.9 420.4 174.1C400.8 235.4 384.6 301.4 343.7 343.7C302.7 385.9 237.1 404.3 175.7 424.1C114.3 443.8 57.1 464.9 0 486L0 0Z" fill="#38d39f"></path></g></svg>